HIERARCHY
ROOT HIP
{
	OFFSET 0.0 0.0 0.0
	CHANNELS 6 Xposition Yposition Zposition Zrotation Xrotation Yrotation
	JOINT WAIST
	{
		OFFSET 0.0 0.040713925 0.0
		CHANNELS 3 Zrotation Xrotation Yrotation
		JOINT CHEST
		{
			OFFSET 0.0 0.20356962 0.0
			CHANNELS 3 Zrotation Xrotation Yrotation
			JOINT UPPER_CHEST
			{
				OFFSET 0.0 0.1628557 0.0
				CHANNELS 3 Zrotation Xrotation Yrotation
				JOINT NECK
				{
					OFFSET 0.0 0.1628557 0.0
					CHANNELS 3 Zrotation Xrotation Yrotation
					JOINT HEAD
					{
						OFFSET 0.0 0.0 0.0
						CHANNELS 3 Zrotation Xrotation Yrotation
						End Site
						{
							OFFSET 0.0 0.0 0.0
						}
					}
					JOINT HEAD_TRACKER
					{
						OFFSET 0.0 -0.0 0.0
						CHANNELS 3 Zrotation Xrotation Yrotation
						End Site
						{
							OFFSET 0.0 0.0 0.0
						}
					}
					JOINT LEFT_UPPER_SHOULDER
					{
						OFFSET 0.0 -0.0 0.0
						CHANNELS 3 Zrotation Xrotation Yrotation
						JOINT LEFT_SHOULDER
						{
							OFFSET 0.0 -0.0 0.0
							CHANNELS 3 Zrotation Xrotation Yrotation
							JOINT LEFT_UPPER_ARM
							{
								OFFSET 0.0 -0.19241881 0.0
								CHANNELS 3 Zrotation Xrotation Yrotation
								JOINT LEFT_LOWER_ARM
								{
									OFFSET 0.0 -0.2646405 0.0
									CHANNELS 3 Zrotation Xrotation Yrotation
									JOINT LEFT_HAND
									{
										OFFSET 0.0 -0.2646405 0.0
										CHANNELS 3 Zrotation Xrotation Yrotation
										JOINT LEFT_HAND_TRACKER
										{
											OFFSET 0.0 -0.13462912 0.0
											CHANNELS 3 Zrotation Xrotation Yrotation
											End Site
											{
												OFFSET 0.0 0.0 0.0
											}
										}
										JOINT LEFT_THUMB_METACARPAL
										{
											OFFSET 0.0 -0.13462912 0.0
											CHANNELS 3 Zrotation Xrotation Yrotation
											JOINT LEFT_THUMB_PROXIMAL
											{
												OFFSET 0.0 -0.007826238 0.0
												CHANNELS 3 Zrotation Xrotation Yrotation
												JOINT LEFT_THUMB_DISTAL
												{
													OFFSET 0.0 -0.007826238 0.0
													CHANNELS 3 Zrotation Xrotation Yrotation
													End Site
													{
														OFFSET 0.0 0.0 0.0
													}
												}
											}
										}
										JOINT LEFT_INDEX_PROXIMAL
										{
											OFFSET 0.0 -0.13462912 0.0
											CHANNELS 3 Zrotation Xrotation Yrotation
											JOINT LEFT_INDEX_INTERMEDIATE
											{
												OFFSET 0.0 -0.00875 0.0
												CHANNELS 3 Zrotation Xrotation Yrotation
												JOINT LEFT_INDEX_DISTAL
												{
													OFFSET 0.0 -0.00875 0.0
													CHANNELS 3 Zrotation Xrotation Yrotation
													End Site
													{
														OFFSET 0.0 0.0 0.0
													}
												}
											}
										}
										JOINT LEFT_MIDDLE_PROXIMAL
										{
											OFFSET 0.0 -0.13462912 0.0
											CHANNELS 3 Zrotation Xrotation Yrotation
											JOINT LEFT_MIDDLE_INTERMEDIATE
											{
												OFFSET 0.0 -0.010500001 0.0
												CHANNELS 3 Zrotation Xrotation Yrotation
												JOINT LEFT_MIDDLE_DISTAL
												{
													OFFSET 0.0 -0.010500001 0.0
													CHANNELS 3 Zrotation Xrotation Yrotation
													End Site
													{
														OFFSET 0.0 0.0 0.0
													}
												}
											}
										}
										JOINT LEFT_RING_PROXIMAL
										{
											OFFSET 0.0 -0.13462912 0.0
											CHANNELS 3 Zrotation Xrotation Yrotation
											JOINT LEFT_RING_INTERMEDIATE
											{
												OFFSET 0.0 -0.0098 0.0
												CHANNELS 3 Zrotation Xrotation Yrotation
												JOINT LEFT_RING_DISTAL
												{
													OFFSET 0.0 -0.0098 0.0
													CHANNELS 3 Zrotation Xrotation Yrotation
													End Site
													{
														OFFSET 0.0 0.0 0.0
													}
												}
											}
										}
										JOINT LEFT_LITTLE_PROXIMAL
										{
											OFFSET 0.0 -0.13462912 0.0
											CHANNELS 3 Zrotation Xrotation Yrotation
											JOINT LEFT_LITTLE_INTERMEDIATE
											{
												OFFSET 0.0 -0.007 0.0
												CHANNELS 3 Zrotation Xrotation Yrotation
												JOINT LEFT_LITTLE_DISTAL
												{
													OFFSET 0.0 -0.007 0.0
													CHANNELS 3 Zrotation Xrotation Yrotation
													End Site
													{
														OFFSET 0.0 0.0 0.0
													}
												}
											}
										}
									}
								}
								JOINT LEFT_ELBOW_TRACKER
								{
									OFFSET 0.0 -0.2646405 0.0
									CHANNELS 3 Zrotation Xrotation Yrotation
									End Site
									{
										OFFSET 0.0 0.0 0.0
									}
								}
							}
						}
					}
					JOINT RIGHT_UPPER_SHOULDER
					{
						OFFSET 0.0 -0.0 0.0
						CHANNELS 3 Zrotation Xrotation Yrotation
						JOINT RIGHT_SHOULDER
						{
							OFFSET 0.0 -0.0 0.0
							CHANNELS 3 Zrotation Xrotation Yrotation
							JOINT RIGHT_UPPER_ARM
							{
								OFFSET 0.0 -0.19241881 0.0
								CHANNELS 3 Zrotation Xrotation Yrotation
								JOINT RIGHT_LOWER_ARM
								{
									OFFSET 0.0 -0.2646405 0.0
									CHANNELS 3 Zrotation Xrotation Yrotation
									JOINT RIGHT_HAND
									{
										OFFSET 0.0 -0.2646405 0.0
										CHANNELS 3 Zrotation Xrotation Yrotation
										JOINT RIGHT_HAND_TRACKER
										{
											OFFSET 0.0 -0.13462912 0.0
											CHANNELS 3 Zrotation Xrotation Yrotation
											End Site
											{
												OFFSET 0.0 0.0 0.0
											}
										}
										JOINT RIGHT_THUMB_METACARPAL
										{
											OFFSET 0.0 -0.13462912 0.0
											CHANNELS 3 Zrotation Xrotation Yrotation
											JOINT RIGHT_THUMB_PROXIMAL
											{
												OFFSET 0.0 -0.007826238 0.0
												CHANNELS 3 Zrotation Xrotation Yrotation
												JOINT RIGHT_THUMB_DISTAL
												{
													OFFSET 0.0 -0.007826238 0.0
													CHANNELS 3 Zrotation Xrotation Yrotation
													End Site
													{
														OFFSET 0.0 0.0 0.0
													}
												}
											}
										}
										JOINT RIGHT_INDEX_PROXIMAL
										{
											OFFSET 0.0 -0.13462912 0.0
											CHANNELS 3 Zrotation Xrotation Yrotation
											JOINT RIGHT_INDEX_INTERMEDIATE
											{
												OFFSET 0.0 -0.00875 0.0
												CHANNELS 3 Zrotation Xrotation Yrotation
												JOINT RIGHT_INDEX_DISTAL
												{
													OFFSET 0.0 -0.00875 0.0
													CHANNELS 3 Zrotation Xrotation Yrotation
													End Site
													{
														OFFSET 0.0 0.0 0.0
													}
												}
											}
										}
										JOINT RIGHT_MIDDLE_PROXIMAL
										{
											OFFSET 0.0 -0.13462912 0.0
											CHANNELS 3 Zrotation Xrotation Yrotation
											JOINT RIGHT_MIDDLE_INTERMEDIATE
											{
												OFFSET 0.0 -0.010500001 0.0
												CHANNELS 3 Zrotation Xrotation Yrotation
												JOINT RIGHT_MIDDLE_DISTAL
												{
													OFFSET 0.0 -0.010500001 0.0
													CHANNELS 3 Zrotation Xrotation Yrotation
													End Site
													{
														OFFSET 0.0 0.0 0.0
													}
												}
											}
										}
										JOINT RIGHT_RING_PROXIMAL
										{
											OFFSET 0.0 -0.13462912 0.0
											CHANNELS 3 Zrotation Xrotation Yrotation
											JOINT RIGHT_RING_INTERMEDIATE
											{
												OFFSET 0.0 -0.0098 0.0
												CHANNELS 3 Zrotation Xrotation Yrotation
												JOINT RIGHT_RING_DISTAL
												{
													OFFSET 0.0 -0.0098 0.0
													CHANNELS 3 Zrotation Xrotation Yrotation
													End Site
													{
														OFFSET 0.0 0.0 0.0
													}
												}
											}
										}
										JOINT RIGHT_LITTLE_PROXIMAL
										{
											OFFSET 0.0 -0.13462912 0.0
											CHANNELS 3 Zrotation Xrotation Yrotation
											JOINT RIGHT_LITTLE_INTERMEDIATE
											{
												OFFSET 0.0 -0.007 0.0
												CHANNELS 3 Zrotation Xrotation Yrotation
												JOINT RIGHT_LITTLE_DISTAL
												{
													OFFSET 0.0 -0.007 0.0
													CHANNELS 3 Zrotation Xrotation Yrotation
													End Site
													{
														OFFSET 0.0 0.0 0.0
													}
												}
											}
										}
									}
								}
								JOINT RIGHT_ELBOW_TRACKER
								{
									OFFSET 0.0 -0.2646405 0.0
									CHANNELS 3 Zrotation Xrotation Yrotation
									End Site
									{
										OFFSET 0.0 0.0 0.0
									}
								}
							}
						}
					}
				}
				JOINT CHEST_TRACKER
				{
					OFFSET 0.0 -0.1628557 0.0
					CHANNELS 3 Zrotation Xrotation Yrotation
					End Site
					{
						OFFSET 0.0 0.0 0.0
					}
				}
			}
		}
	}
	JOINT LEFT_HIP
	{
		OFFSET 0.0 -0.040713925 0.0
		CHANNELS 3 Zrotation Xrotation Yrotation
		JOINT LEFT_UPPER_LEG
		{
			OFFSET 0.0 -0.13 0.0
			CHANNELS 3 Zrotation Xrotation Yrotation
			JOINT LEFT_LOWER_LEG
			{
				OFFSET 0.0 -0.42749622 0.0
				CHANNELS 3 Zrotation Xrotation Yrotation
				JOINT LEFT_FOOT
				{
					OFFSET 0.0 -0.5113743 0.0
					CHANNELS 3 Zrotation Xrotation Yrotation
					JOINT LEFT_FOOT_TRACKER
					{
						OFFSET 0.0 -0.05 0.0
						CHANNELS 3 Zrotation Xrotation Yrotation
						End Site
						{
							OFFSET 0.0 0.0 0.0
						}
					}
				}
			}
			JOINT LEFT_KNEE_TRACKER
			{
				OFFSET 0.0 -0.42749622 0.0
				CHANNELS 3 Zrotation Xrotation Yrotation
				End Site
				{
					OFFSET 0.0 0.0 0.0
				}
			}
		}
	}
	JOINT RIGHT_HIP
	{
		OFFSET 0.0 -0.040713925 0.0
		CHANNELS 3 Zrotation Xrotation Yrotation
		JOINT RIGHT_UPPER_LEG
		{
			OFFSET 0.0 -0.13 0.0
			CHANNELS 3 Zrotation Xrotation Yrotation
			JOINT RIGHT_LOWER_LEG
			{
				OFFSET 0.0 -0.42749622 0.0
				CHANNELS 3 Zrotation Xrotation Yrotation
				JOINT RIGHT_FOOT
				{
					OFFSET 0.0 -0.5113743 0.0
					CHANNELS 3 Zrotation Xrotation Yrotation
					JOINT RIGHT_FOOT_TRACKER
					{
						OFFSET 0.0 -0.05 0.0
						CHANNELS 3 Zrotation Xrotation Yrotation
						End Site
						{
							OFFSET 0.0 0.0 0.0
						}
					}
				}
			}
			JOINT RIGHT_KNEE_TRACKER
			{
				OFFSET 0.0 -0.42749622 0.0
				CHANNELS 3 Zrotation Xrotation Yrotation
				End Site
				{
					OFFSET 0.0 0.0 0.0
				}
			}
		}
	}
	JOINT HIP_TRACKER
	{
		OFFSET 0.0 -0.040713925 0.0
		CHANNELS 3 Zrotation Xrotation Yrotation
		End Site
		{
			OFFSET 0.0 0.0 0.0
		}
	}
}
MOTION
Frames: 4               
Frame Time: 0.01
-0.0025992421 -0.5263461 0.055588916 0.08202697 -5.8497844 -2.4311655 -0.22619936 -0.101256266 -0.27839056 -0.20860723 -0.15224046 -0.2573197 4.0020648E-8 -4.268869E-7 1.4007226E-7 -2.6680397E-8 4.256357E-7 -5.7529608E-8 2.6680429E-8 -1.6500682E-17 -7.086988E-8 2.6680429E-8 -1.6500682E-17 -7.086988E-8 2.6680429E-8 -1.6500682E-17 -7.086988E-8 -65.43282 7.0525107E-7 -3.0802158E-7 71.914314 -30.197418 15.411474 170.7697 49.64109 -171.34406 -55.59593 60.911472 74.76921 1.0031061E-5 -74.93151 1.4141608E-5 0.20224577 -48.226562 0.14239147 -8.537735E-7 2.1344337E-7 1.5902768E-15 -8.537735E-7 2.1344337E-7 1.5902768E-15 0.44499695 -74.791405 0.36160904 1.7075472E-6 3.4150944E-6 1.7075471E-6 1.7075472E-6 3.4150944E-6 1.7075471E-6 0.44499695 -74.791405 0.36160904 1.7075472E-6 3.4150944E-6 1.7075471E-6 1.7075472E-6 3.4150944E-6 1.7075471E-6 0.44499695 -74.791405 0.36160904 1.7075472E-6 3.4150944E-6 1.7075471E-6 1.7075472E-6 3.4150944E-6 1.7075471E-6 0.44499636 -74.791405 0.3616086 -0.0 0.0 0.0 -0.0 0.0 0.0 1.600803E-7 6.7900687E-6 -1.8409224E-6 2.6680429E-8 -1.6500682E-17 -7.086988E-8 65.432816 6.421977E-8 -2.9494436E-7 -62.49883 -19.124628 -11.3454685 -167.98175 52.559387 160.2122 57.35542 61.420746 -69.0125 -3.917779E-6 -74.93151 -7.3051424E-6 -0.09394122 -48.29255 -0.072251685 1.7075472E-6 -3.201651E-6 4.7708318E-14 1.7075472E-6 -3.201651E-6 4.7708318E-14 -0.2176387 -74.85756 -0.18402436 -0.0 0.0 0.0 -0.0 0.0 0.0 -0.2176387 -74.85756 -0.18402436 -0.0 0.0 0.0 -0.0 0.0 0.0 -0.2176387 -74.85756 -0.18402436 -0.0 0.0 0.0 -0.0 0.0 0.0 -0.21763864 -74.85756 -0.18402433 8.537737E-7 -3.4150949E-6 2.5444445E-14 8.537737E-7 -3.4150949E-6 2.5444445E-14 -4.268842E-7 -3.57808E-15 9.604894E-7 -2.6680397E-8 4.256357E-7 -5.7529608E-8 -90.0 -3.0185458E-7 3.0185456E-7 88.50004 1.3680016 3.656149 -0.89011914 -5.594644 -2.1287792 162.35176 79.500786 -160.51567 -0.39564967 -89.99999 -0.39565024 -0.57975686 0.009112951 -1.800851 89.99999 3.0185458E-7 -3.0185456E-7 -88.04832 -0.9574637 -2.9793663 -0.0050465656 -5.61112 0.39237025 -176.627 78.99245 175.06133 177.04842 -89.999985 177.04842 -0.036898505 -1.0663064E-4 0.3319164 -1.616703E-15 4.2730375E-7 4.3355695E-7
-0.0029000486 -0.5263186 0.055831894 0.06928789 -5.8663955 -2.4450939 -0.23855573 -0.10688197 -0.28789818 -0.21999556 -0.16070841 -0.2661325 5.336085E-8 4.1688175E-10 1.817604E-7 -2.6680421E-8 4.1688164E-10 -2.4345886E-7 -0.0 0.0 1.8259416E-7 -0.0 0.0 1.8259416E-7 -0.0 0.0 1.8259416E-7 -65.43282 3.8648434E-8 5.322072E-7 72.00453 -29.786915 15.503453 170.55156 50.97005 -170.955 -55.132954 60.8321 74.2132 -1.784219E-6 -74.93151 2.9352998E-6 0.3483327 -48.124836 0.24500714 -0.0 3.4150944E-6 0.0 -0.0 3.4150944E-6 0.0 0.76329684 -74.6893 0.61937714 1.7075472E-6 0.0 0.0 1.7075472E-6 0.0 0.0 0.76329684 -74.6893 0.61937714 1.7075472E-6 0.0 0.0 1.7075472E-6 0.0 0.0 0.76329684 -74.6893 0.61937714 1.7075472E-6 0.0 0.0 1.7075472E-6 0.0 0.0 0.7632963 -74.6893 0.6193767 -1.7075474E-6 2.1344343E-7 -1.7075474E-6 -1.7075474E-6 2.1344343E-7 -1.7075474E-6 1.06720215E-7 2.001004E-8 2.8014057E-7 -0.0 0.0 1.8259416E-7 65.43282 -3.847351E-7 -6.5385843E-9 -62.615013 -18.788067 -11.393511 -167.33379 53.785824 159.41867 57.58916 61.86352 -69.32893 4.480129E-6 -74.93151 3.433472E-6 -0.16193871 -48.238865 -0.12450011 1.707547E-6 0.0 0.0 1.707547E-6 0.0 0.0 -0.37435105 -74.80377 -0.3163409 -8.537737E-7 3.4150949E-6 2.5444445E-14 -8.537737E-7 3.4150949E-6 2.5444445E-14 -0.37435105 -74.80377 -0.3163409 -8.537737E-7 3.4150949E-6 2.5444445E-14 -8.537737E-7 3.4150949E-6 2.5444445E-14 -0.37435105 -74.80377 -0.3163409 -8.537737E-7 3.4150949E-6 2.5444445E-14 -8.537737E-7 3.4150949E-6 2.5444445E-14 -0.374347 -74.80377 -0.31633562 0.0 0.0 -3.4150949E-6 0.0 0.0 -3.4150949E-6 -1.590269E-14 -3.4150855E-6 -5.3360714E-7 -2.6680421E-8 4.1688164E-10 -2.4345886E-7 -90.0 -2.2639092E-7 -2.2639092E-7 88.511406 1.3770232 3.6691253 -0.8856131 -5.594779 -2.121771 162.30984 79.49543 -160.47682 0.92311835 -89.999985 0.9231185 -0.57650787 0.009032163 -1.794922 90.0 3.773182E-7 2.2639095E-7 -88.03117 -0.9382138 -2.9705956 -0.008301018 -5.61113 0.40062004 -176.6448 79.00501 175.07253 4.9051016E-7 -90.0 0.0 -0.040350717 -1.1947418E-4 0.33889458 1.33402125E-8 -4.2688686E-7 -1.4007223E-7
-0.003654452 -0.52624786 0.056447893 0.036186285 -5.907239 -2.4781466 -0.26876062 -0.121781655 -0.31132323 -0.24782862 -0.18314457 -0.28786442 8.0041275E-8 -4.2438552E-7 -2.3011867E-7 -5.3360743E-8 4.2605217E-7 2.1677803E-8 2.6680425E-8 -4.268868E-7 -1.5007739E-8 2.6680425E-8 -4.268868E-7 -1.5007739E-8 2.6680425E-8 -4.268868E-7 -1.5007739E-8 -65.432816 5.64318E-7 1.0882373E-7 72.20305 -28.722027 15.690655 169.92506 53.362732 -170.09834 -53.633904 60.392128 72.21835 -2.6066348E-6 -74.93151 -1.9976671E-6 0.50455475 -48.02315 0.383227 -8.537736E-7 4.268868E-7 -3.4150944E-6 -8.537736E-7 4.268868E-7 -3.4150944E-6 1.1494108 -74.586754 0.96443385 0.0 -3.4150944E-6 0.0 0.0 -3.4150944E-6 0.0 1.1494108 -74.586754 0.96443385 0.0 -3.4150944E-6 0.0 0.0 -3.4150944E-6 0.0 1.1494108 -74.586754 0.96443385 0.0 -3.4150944E-6 0.0 0.0 -3.4150944E-6 0.0 1.1494155 -74.586754 0.96443737 3.4150944E-6 3.4150944E-6 -1.7075472E-6 3.4150944E-6 3.4150944E-6 -1.7075472E-6 -1.067201E-6 -3.3283327E-6 -5.6028045E-7 2.6680425E-8 -4.268868E-7 -1.5007739E-8 65.43283 -1.1536244E-7 -1.7958224E-7 -62.822315 -18.089571 -11.456143 -166.10255 55.938206 157.99092 57.432457 62.52062 -69.10431 5.787384E-6 -74.9315 6.586652E-6 -0.27059224 -48.14899 -0.25932822 8.537737E-7 3.4150949E-6 -2.5444445E-14 8.537737E-7 3.4150949E-6 -2.5444445E-14 -0.7104865 -74.71337 -0.65628237 3.180555E-15 2.1344343E-7 -1.7075474E-6 3.180555E-15 2.1344343E-7 -1.7075474E-6 -0.7104865 -74.71337 -0.65628237 3.180555E-15 2.1344343E-7 -1.7075474E-6 3.180555E-15 2.1344343E-7 -1.7075474E-6 -0.7104865 -74.71337 -0.65628237 3.180555E-15 2.1344343E-7 -1.7075474E-6 3.180555E-15 2.1344343E-7 -1.7075474E-6 -0.7104888 -74.71337 -0.65628415 -8.537735E-7 0.0 0.0 -8.537735E-7 0.0 0.0 -8.537724E-7 3.361729E-6 4.80247E-7 -5.3360743E-8 4.2605217E-7 2.1677803E-8 -90.0 -3.0185458E-7 3.0185458E-7 88.541374 1.4062587 3.6997147 -0.8785371 -5.5949945 -2.1107745 162.2442 79.486984 -160.41602 179.0505 -89.99999 179.0505 -0.5714063 0.008904046 -1.7856184 90.0 3.0185458E-7 -3.0185458E-7 -87.99176 -0.8923336 -2.9475522 -0.013409664 -5.6111493 0.4135719 -176.67282 79.02472 175.09013 -2.5305035 -89.99999 -2.5305035 -0.045769595 -1.3966304E-4 0.3498515 -2.5805068E-16 4.2730375E-7 6.9202365E-8
-0.004048088 -0.5262102 0.05676864 0.018916316 -5.928528 -2.4953904 -0.28451562 -0.12954713 -0.32353443 -0.26234436 -0.19483855 -0.299198 -8.0041275E-8 4.2438552E-7 -2.8347952E-8 8.004104E-8 -4.2605177E-7 2.8347868E-8 -5.336085E-8 1.4753549E-17 -3.1683005E-8 -5.336085E-8 1.4753549E-17 -3.1683005E-8 -5.336085E-8 1.4753549E-17 -3.1683005E-8 -65.43282 -1.7958244E-7 -1.1536255E-7 72.30154 -28.070396 15.792506 169.5061 54.763004 -169.54927 -52.821045 60.165848 71.107445 -3.8245566E-6 -74.93151 -7.7972925E-7 0.38662675 -48.104004 0.29383314 -2.5613208E-6 -2.9882076E-6 -6.6791645E-14 -2.5613208E-6 -2.9882076E-6 -6.6791645E-14 0.8836005 -74.668205 0.7420986 0.0 -3.4150944E-6 0.0 0.0 -3.4150944E-6 0.0 0.8836005 -74.668205 0.7420986 0.0 -3.4150944E-6 0.0 0.0 -3.4150944E-6 0.0 0.8836005 -74.668205 0.7420986 0.0 -3.4150944E-6 0.0 0.0 -3.4150944E-6 0.0 0.883604 -74.668205 0.7421035 5.0888872E-14 3.4150944E-6 -1.7075472E-6 5.0888872E-14 3.4150944E-6 -1.7075472E-6 2.1343973E-7 6.6699934E-9 7.4703905E-7 -5.336085E-8 1.4753549E-17 -3.1683005E-8 65.43283 -6.541098E-7 1.6650523E-7 -62.958523 -17.677202 -11.4910145 -165.35992 57.113785 157.18173 57.102272 62.816597 -68.63067 1.9549755E-6 -74.93151 1.4982498E-6 -0.22582771 -48.185184 -0.22192153 -0.0 2.1344343E-7 0.0 -0.0 2.1344343E-7 0.0 -0.6031381 -74.749756 -0.5625174 -0.0 3.6285378E-6 0.0 -0.0 3.6285378E-6 0.0 -0.6031381 -74.749756 -0.5625174 -0.0 3.6285378E-6 0.0 -0.0 3.6285378E-6 0.0 -0.6031381 -74.749756 -0.5625174 -0.0 3.6285378E-6 0.0 -0.0 3.6285378E-6 0.0 -0.6031406 -74.749756 -0.56251943 0.0 0.0 -1.7075474E-6 0.0 0.0 -1.7075474E-6 4.2688603E-7 -1.7075441E-6 1.3873796E-6 8.004104E-8 -4.2605177E-7 2.8347868E-8 -89.99999 -6.791728E-7 5.282455E-7 88.556984 1.4215087 3.7156572 -0.8748457 -5.595105 -2.1050425 162.20999 79.48259 -160.38431 179.96042 -89.99999 179.96042 -0.56874424 0.008838873 -1.78077 90.0 3.0185456E-7 -3.0185458E-7 -87.97122 -0.8684008 -2.9355497 -0.016073436 -5.6111608 0.4203218 -176.68747 79.034996 175.09937 2.6412195E-7 -90.0 0.0 -0.048594497 -1.5094233E-4 0.35556114 -2.6680429E-8 8.537737E-7 3.7352598E-7
